<?xml version="1.0" encoding="utf-8"?>
<!-- Generator: Adobe Illustrator 27.7.0, SVG Export Plug-In . SVG Version: 6.00 Build 0)  -->
<svg version="1.1" id="Layer_1" xmlns="http://www.w3.org/2000/svg" xmlns:xlink="http://www.w3.org/1999/xlink" x="0px" y="0px"
	 viewBox="0 0 758 757" style="enable-background:new 0 0 758 757;" xml:space="preserve">
<style type="text/css">
	.st0{fill:#222204;}
	.st1{display:none;}
	.st2{display:inline;fill:none;stroke:#FFFFFF;stroke-width:40;stroke-miterlimit:10;}
	.st3{display:inline;fill:none;stroke:#969696;stroke-width:40;stroke-miterlimit:10;}
	.st4{fill:#FFFFFF;}
	.st5{fill:#C4BEB9;}
</style>
<circle class="st0" cx="379" cy="379" r="379"/>
<g id="Background">
</g>
<g id="Layer_1_00000108278125358874798400000013576311127700762020_" class="st1">
	
		<image style="display:inline;overflow:visible;enable-background:new    ;" width="727" height="674" xlink:href="98E25C9C.jpeg"  transform="matrix(1 0 0 1 15 10)">
	</image>
</g>
<g id="S_backup" class="st1">
	<polyline class="st2" points="679,150 131,150 238.8,249.5 519.2,508.5 627,608 79,608 	"/>
</g>
<g id="Logo_Backup" class="st1">
	<polyline class="st2" points="519.2,508.5 627,608 79,608 	"/>
	<polyline class="st2" points="679,150 131,150 238.8,249.5 	"/>
	<polyline class="st3" points="679,249.5 99.5,249.5 99.5,508.5 679,508.5 	"/>
	<line class="st2" x1="238.8" y1="249.5" x2="519.2" y2="508.5"/>
</g>
<g id="Guides" class="st1">
</g>
<g id="S">
	<g>
		<polygon class="st4" points="645.9,601.2 111.3,601.2 111.3,565.5 554.7,565.5 497.1,512.4 549.8,512.4 		"/>
	</g>
	<g>
		<polygon class="st4" points="646.7,192.5 203.3,192.5 260.9,245.6 208.2,245.6 112.1,156.8 646.7,156.8 		"/>
	</g>
</g>
<g id="E">
	<g>
		<polygon class="st5" points="147.5,281.3 147.5,361.2 333.4,361.2 372,396.8 147.5,396.8 147.5,476.7 646.7,476.7 646.7,512.4 
			111.8,512.4 111.8,245.6 646.7,245.6 646.7,281.3 		"/>
		<polygon class="st5" points="646.7,361.2 646.7,396.8 424.6,396.8 386,361.2 		"/>
	</g>
</g>
<g id="Layer_6">
	<g>
		<polygon class="st4" points="511.1,476.7 458.5,476.7 372,396.8 333.4,361.2 246.9,281.3 299.5,281.3 386,361.2 424.6,396.8 		"/>
	</g>
</g>
</svg>
